<svg width="256" height="256" viewBox="0 0 256 256" fill="none" xmlns="http://www.w3.org/2000/svg">
  <defs>
    <linearGradient id="hgRoxo" x1="48" y1="32" x2="208" y2="224" gradientUnits="userSpaceOnUse">
      <stop offset="0" stop-color="#660099"/>
      <stop offset="1" stop-color="#9B26B6"/>
    </linearGradient>
    <linearGradient id="hgBadge" x1="168" y1="168" x2="232" y2="232" gradientUnits="userSpaceOnUse">
      <stop offset="0" stop-color="#EB3C96"/>
      <stop offset="1" stop-color="#8B1FB0"/>
    </linearGradient>
  </defs>

  <!-- Fundo arredondado -->
  <rect x="16" y="16" width="224" height="224" rx="52" fill="url(#hgRoxo)"/>

  <!-- Ampulheta -->
  <g stroke="#FFFFFF" stroke-width="10" stroke-linecap="round" stroke-linejoin="round" fill="none">
    <line x1="78" y1="64" x2="162" y2="64"/>
    <line x1="78" y1="176" x2="162" y2="176"/>
    <path d="M84 64 C84 104, 120 108, 120 120 C120 132, 84 136, 84 176"/>
    <path d="M156 64 C156 104, 120 108, 120 120 C120 132, 156 136, 156 176"/>
  </g>
  <!-- Areia -->
  <path d="M96 76 L144 76 L124 112 L116 112 Z" fill="#FFFFFF" opacity="0.9"/>
  <path d="M112 128 L128 128 L146 166 L94 166 Z" fill="#FFFFFF" opacity="0.9"/>

  <!-- Badge + -->
  <circle cx="196" cy="196" r="40" fill="#FFFFFF"/>
  <circle cx="196" cy="196" r="34" fill="url(#hgBadge)"/>
  <g stroke="#FFFFFF" stroke-width="8" stroke-linecap="round">
    <line x1="196" y1="180" x2="196" y2="212"/>
    <line x1="180" y1="196" x2="212" y2="196"/>
  </g>
</svg>
